<?xml version="1.0" standalone="no"?>
<!DOCTYPE svg PUBLIC "-//W3C//DTD SVG 20010904//EN"
 "http://www.w3.org/TR/2001/REC-SVG-20010904/DTD/svg10.dtd">
<svg version="1.0" xmlns="http://www.w3.org/2000/svg"
 width="70.000000pt" height="70.000000pt" viewBox="0 0 70.000000 70.000000"
 preserveAspectRatio="xMidYMid meet">
<metadata>
Created by potrace 1.11, written by Peter Selinger 2001-2013
</metadata>
<g transform="translate(0.000000,70.000000) scale(0.100000,-0.100000)"
fill="#000000" stroke="none">
<path d="M0 350 l0 -350 350 0 350 0 0 350 0 350 -350 0 -350 0 0 -350z m560
245 c7 -8 10 -25 6 -40 -6 -24 -10 -25 -80 -25 -49 0 -77 -4 -85 -13 -7 -9
-12 -88 -13 -218 l-3 -204 -35 0 -35 0 -3 204 c-1 130 -6 209 -13 218 -8 9
-36 13 -85 13 -70 0 -74 1 -80 25 -13 52 1 55 216 55 163 0 200 -3 210 -15z"/>
</g>
</svg>
