<svg width="92" height="84" fill="none" xmlns="http://www.w3.org/2000/svg"><path d="M83.5 29.3333H57.2083l3.9584-19.0417.125-1.3333c0-1.7083-.7084-3.2917-1.8334-4.4167L55.0417.1666 27.625 27.625c-1.5417 1.5-2.4583 3.5833-2.4583 5.875v41.6666c0 4.5834 3.75 8.3334 8.3333 8.3334H71c3.4583 0 6.4167-2.0834 7.6667-5.0834L91.25 49.0416c.375-.9583.5833-1.9583.5833-3.0416v-8.3334c0-4.5833-3.75-8.3333-8.3333-8.3333zM83.5 46L71 75.1666H33.5V33.5l18.0833-18.0834-4.625 22.25H83.5V46zM.1667 33.5h16.6666v50H.1667v-50z" fill="#3077C6"/></svg>