<svg display="none" xmlns="http://www.w3.org/2000/svg">
          <symbol id="support_icon">
            <path
              d="M67.1667 54.3333V71h-8.3334V54.3333h8.3334zm-50 0V71H13c-2.2917 0-4.1667-1.875-4.1667-4.1667v-12.5h8.3334zM38 .1666C17.2917.1666.5 16.9583.5 37.6666v29.1667c0 6.9167 5.5833 12.5 12.5 12.5h12.5V46H8.8333v-8.3334C8.8333 21.5416 21.875 8.5 38 8.5s29.1667 13.0416 29.1667 29.1666V46H50.5v33.3333h16.6667V83.5H38v8.3333h25c6.9167 0 12.5-5.5833 12.5-12.5V37.6666c0-20.7083-16.7917-37.5-37.5-37.5z"
              fill="#3077C6"
            />
          </symbol>
          <symbol id="device_icon">
            <path
              d="M16.6667 9h75V.6666h-75c-4.5834 0-8.3334 3.75-8.3334 8.3334v45.8333H0v12.5h58.3333v-12.5H16.6667V9zm79.1666 8.3333h-25c-2.2916 0-4.1666 1.875-4.1666 4.1667v41.6666c0 2.2917 1.875 4.1667 4.1666 4.1667h25c2.2917 0 4.1667-1.875 4.1667-4.1667V21.5c0-2.2917-1.875-4.1667-4.1667-4.1667zm-4.1666 37.5H75V25.6666h16.6667v29.1667z"
              fill="#3077C6"
            />
          </symbol>
          <symbol id="like_icon">
            <path
              d="M83.5 29.3333H57.2083l3.9584-19.0417.125-1.3333c0-1.7083-.7084-3.2917-1.8334-4.4167L55.0417.1666 27.625 27.625c-1.5417 1.5-2.4583 3.5833-2.4583 5.875v41.6666c0 4.5834 3.75 8.3334 8.3333 8.3334H71c3.4583 0 6.4167-2.0834 7.6667-5.0834L91.25 49.0416c.375-.9583.5833-1.9583.5833-3.0416v-8.3334c0-4.5833-3.75-8.3333-8.3333-8.3333zM83.5 46L71 75.1666H33.5V33.5l18.0833-18.0834-4.625 22.25H83.5V46zM.1667 33.5h16.6666v50H.1667v-50z"
              fill="#3077C6"
            />
          </symbol>
          <symbol id="message_icon">
            <path d="M54.5 8.6667v29.1667H13.5417l-4.875 4.875V8.6667H54.5zM58.6667.3334H4.5C2.2083.3334.3333 2.2084.3333 4.5v58.3334L17 46.1667h41.6667c2.2916 0 4.1666-1.875 4.1666-4.1667V4.5c0-2.2916-1.875-4.1666-4.1666-4.1666zM79.5 17h-8.3333v37.5H17v8.3334C17 65.125 18.875 67 21.1667 67H67l16.6667 16.6667v-62.5C83.6667 18.875 81.7917 17 79.5 17z" fill="#3077C6"/>
          </symbol>
        </svg>